<svg xmlns="http://www.w3.org/2000/svg" xmlns:xlink="http://www.w3.org/1999/xlink" width="1080" zoomAndPan="magnify" viewBox="0 0 810 824.999997" height="1100" preserveAspectRatio="xMidYMid meet" version="1.0"><defs><clipPath id="401f7a18b0"><path d="M 26.125 62.078125 L 736 62.078125 L 736 705.578125 L 26.125 705.578125 Z M 26.125 62.078125 " clip-rule="nonzero"/></clipPath></defs><path fill="#3871c1" d="M 309.636719 570.949219 C 423.34375 526.757812 520.574219 461.148438 583.40625 386.199219 C 588.953125 379.589844 594.164062 372.984375 599.039062 366.390625 C 621.527344 328.253906 633.863281 289.917969 634.03125 253.648438 L 414.46875 126.84375 L 164.109375 271.429688 C 164.109375 386.863281 203.894531 496.578125 273.6875 583.972656 C 285.6875 579.921875 297.683594 575.59375 309.636719 570.949219 " fill-opacity="1" fill-rule="nonzero"/><g clip-path="url(#401f7a18b0)"><path fill="#00adef" d="M 725.976562 186.191406 C 696.28125 109.730469 604.765625 66.898438 486.332031 62.308594 C 572.335938 77.824219 636.46875 117.59375 660.410156 179.246094 C 711.917969 311.851562 558.039062 495.375 316.710938 589.160156 C 214.542969 628.863281 113.089844 646.113281 26.136719 642.742188 C 125.144531 660.601562 253.140625 646.292969 382.28125 596.113281 C 423.832031 579.960938 462.785156 561.15625 498.554688 540.402344 C 448.484375 577.449219 389.152344 610.75 322.972656 637.296875 C 350.476562 663.019531 381.0625 685.882812 414.46875 705.175781 C 520.492188 643.941406 598.601562 547.167969 637.371094 434.828125 C 718.457031 352.644531 755.136719 261.257812 725.976562 186.191406 " fill-opacity="1" fill-rule="nonzero"/></g></svg>